<mxfile host="app.diagrams.net" modified="2024-03-19T04:35:24.535Z" agent="Mozilla/5.0 (Windows NT 10.0; Win64; x64) AppleWebKit/537.36 (KHTML, like Gecko) Chrome/122.0.0.0 Safari/537.36" etag="tPmLm3G4ygQz-us79dWc" version="24.0.7" type="github">
  <diagram id="R2lEEEUBdFMjLlhIrx00" name="Page-1">
    <mxGraphModel dx="1444" dy="811" grid="1" gridSize="10" guides="1" tooltips="1" connect="1" arrows="1" fold="1" page="1" pageScale="1" pageWidth="850" pageHeight="1100" math="0" shadow="0" extFonts="Permanent Marker^https://fonts.googleapis.com/css?family=Permanent+Marker">
      <root>
        <mxCell id="0" />
        <mxCell id="1" parent="0" />
        <mxCell id="gmLKkYJIJeNkMna4f-KU-1" value="" style="rounded=1;whiteSpace=wrap;html=1;" vertex="1" parent="1">
          <mxGeometry x="80" y="310" width="190" height="150" as="geometry" />
        </mxCell>
        <mxCell id="gmLKkYJIJeNkMna4f-KU-2" value="&lt;h1 style=&quot;margin-top: 0px;&quot;&gt;EMPLOYEE&lt;/h1&gt;&lt;p&gt;&lt;span style=&quot;font-size: 10px; background-color: initial;&quot;&gt;# Employee id&lt;/span&gt;&lt;br&gt;&lt;span style=&quot;font-size: 10px; background-color: initial;&quot;&gt;Personal Number&lt;/span&gt;&lt;br&gt;&lt;span style=&quot;background-color: initial; font-size: 10px;&quot;&gt;address&lt;/span&gt;&lt;br&gt;&lt;span style=&quot;background-color: initial; font-size: 10px;&quot;&gt;phoneId&lt;/span&gt;&lt;br&gt;&lt;/p&gt;&lt;p&gt;&lt;br&gt;&lt;/p&gt;&lt;p&gt;&lt;br&gt;&lt;/p&gt;" style="text;html=1;whiteSpace=wrap;overflow=hidden;rounded=0;" vertex="1" parent="1">
          <mxGeometry x="80" y="300" width="130" height="120" as="geometry" />
        </mxCell>
        <mxCell id="gmLKkYJIJeNkMna4f-KU-5" value="" style="rounded=1;whiteSpace=wrap;html=1;" vertex="1" parent="1">
          <mxGeometry x="40" y="30" width="190" height="190" as="geometry" />
        </mxCell>
        <mxCell id="gmLKkYJIJeNkMna4f-KU-6" value="&lt;h1 style=&quot;margin-top: 0px;&quot;&gt;TRIP&lt;/h1&gt;&lt;p&gt;&lt;span style=&quot;background-color: initial; font-size: 10px;&quot;&gt;# Trip id&lt;/span&gt;&lt;br&gt;&lt;span style=&quot;font-size: 10px; background-color: initial;&quot;&gt;fk Car id&lt;/span&gt;&lt;br&gt;&lt;span style=&quot;font-size: 10px; background-color: initial;&quot;&gt;fk Driver id&lt;/span&gt;&lt;br&gt;&lt;span style=&quot;font-size: 10px; background-color: initial;&quot;&gt;fk operator id&lt;/span&gt;&lt;br&gt;&lt;span style=&quot;font-size: 10px; background-color: initial;&quot;&gt;Departure address&lt;/span&gt;&lt;br&gt;&lt;span style=&quot;font-size: 10px; background-color: initial;&quot;&gt;Destination address&lt;/span&gt;&lt;br&gt;&lt;span style=&quot;font-size: 10px; background-color: initial;&quot;&gt;Departure time&lt;/span&gt;&lt;br&gt;&lt;span style=&quot;font-size: 10px; background-color: initial;&quot;&gt;Destination time&lt;/span&gt;&lt;br&gt;&lt;/p&gt;&lt;p&gt;&lt;br&gt;&lt;/p&gt;&lt;p&gt;&lt;br&gt;&lt;/p&gt;" style="text;html=1;whiteSpace=wrap;overflow=hidden;rounded=0;" vertex="1" parent="1">
          <mxGeometry x="50" y="30" width="170" height="170" as="geometry" />
        </mxCell>
        <mxCell id="gmLKkYJIJeNkMna4f-KU-7" value="" style="rounded=1;whiteSpace=wrap;html=1;" vertex="1" parent="1">
          <mxGeometry x="510" y="280" width="190" height="150" as="geometry" />
        </mxCell>
        <mxCell id="gmLKkYJIJeNkMna4f-KU-8" value="&lt;h1 style=&quot;margin-top: 0px;&quot;&gt;DRIVER&lt;/h1&gt;&lt;p&gt;&lt;span style=&quot;background-color: initial; font-size: 10px;&quot;&gt;# Driver id&lt;/span&gt;&lt;br&gt;&lt;span style=&quot;font-size: 10px; background-color: initial;&quot;&gt;fk Employee id&lt;/span&gt;&lt;br&gt;&lt;span style=&quot;font-size: 10px; background-color: initial;&quot;&gt;fk licence id&lt;/span&gt;&lt;br&gt;&lt;span style=&quot;font-size: 10px; background-color: initial;&quot;&gt;fk Certificate id&lt;/span&gt;&lt;br&gt;&lt;/p&gt;&lt;p&gt;&lt;br&gt;&lt;/p&gt;&lt;p&gt;&lt;br&gt;&lt;/p&gt;" style="text;html=1;whiteSpace=wrap;overflow=hidden;rounded=0;" vertex="1" parent="1">
          <mxGeometry x="530" y="280" width="130" height="120" as="geometry" />
        </mxCell>
        <mxCell id="gmLKkYJIJeNkMna4f-KU-9" value="" style="rounded=1;whiteSpace=wrap;html=1;" vertex="1" parent="1">
          <mxGeometry x="440" y="40" width="190" height="150" as="geometry" />
        </mxCell>
        <mxCell id="gmLKkYJIJeNkMna4f-KU-10" value="&lt;h1 style=&quot;margin-top: 0px;&quot;&gt;CAR&lt;/h1&gt;&lt;p&gt;&lt;span style=&quot;font-size: 10px; background-color: initial;&quot;&gt;# Car id&lt;/span&gt;&lt;br&gt;&lt;span style=&quot;font-size: 10px;&quot;&gt;Type&lt;/span&gt;&lt;br&gt;&lt;span style=&quot;font-size: 10px;&quot;&gt;Year of Manufacture&lt;/span&gt;&lt;br&gt;&lt;span style=&quot;font-size: 10px;&quot;&gt;Number of place&lt;/span&gt;&lt;/p&gt;&lt;p&gt;&lt;span style=&quot;font-size: 10px;&quot;&gt;Data of last service&lt;/span&gt;&lt;/p&gt;&lt;p&gt;&lt;br&gt;&lt;/p&gt;&lt;p&gt;&lt;br&gt;&lt;/p&gt;" style="text;html=1;whiteSpace=wrap;overflow=hidden;rounded=0;" vertex="1" parent="1">
          <mxGeometry x="450" y="40" width="140" height="135" as="geometry" />
        </mxCell>
        <mxCell id="gmLKkYJIJeNkMna4f-KU-11" value="" style="rounded=1;whiteSpace=wrap;html=1;" vertex="1" parent="1">
          <mxGeometry x="740" y="540" width="190" height="120" as="geometry" />
        </mxCell>
        <mxCell id="gmLKkYJIJeNkMna4f-KU-12" value="&lt;h1 style=&quot;margin-top: 0px;&quot;&gt;CERTIFICATE&lt;/h1&gt;&lt;p&gt;&lt;span style=&quot;background-color: initial; font-size: 10px;&quot;&gt;# Certificate id&lt;/span&gt;&lt;br&gt;&lt;span style=&quot;font-size: 10px;&quot;&gt;Date of Issue&lt;/span&gt;&lt;br&gt;&lt;/p&gt;&lt;p&gt;&lt;br&gt;&lt;/p&gt;&lt;p&gt;&lt;br&gt;&lt;/p&gt;" style="text;html=1;whiteSpace=wrap;overflow=hidden;rounded=0;" vertex="1" parent="1">
          <mxGeometry x="750" y="555" width="160" height="85" as="geometry" />
        </mxCell>
        <mxCell id="gmLKkYJIJeNkMna4f-KU-13" value="" style="rounded=1;whiteSpace=wrap;html=1;" vertex="1" parent="1">
          <mxGeometry x="740" y="340" width="190" height="150" as="geometry" />
        </mxCell>
        <mxCell id="gmLKkYJIJeNkMna4f-KU-14" value="&lt;h1 style=&quot;margin-top: 0px;&quot;&gt;Licence&lt;/h1&gt;&lt;p&gt;&lt;span style=&quot;background-color: initial; font-size: 10px;&quot;&gt;# Licence id&lt;/span&gt;&lt;br&gt;&lt;span style=&quot;font-size: 10px;&quot;&gt;type&lt;/span&gt;&lt;br&gt;&lt;span style=&quot;font-size: 10px;&quot;&gt;Date of issue&lt;/span&gt;&lt;br&gt;&lt;br&gt;&lt;/p&gt;&lt;p&gt;&lt;br&gt;&lt;/p&gt;&lt;p&gt;&lt;br&gt;&lt;/p&gt;" style="text;html=1;whiteSpace=wrap;overflow=hidden;rounded=0;" vertex="1" parent="1">
          <mxGeometry x="750" y="350" width="130" height="120" as="geometry" />
        </mxCell>
        <mxCell id="gmLKkYJIJeNkMna4f-KU-15" value="" style="rounded=1;whiteSpace=wrap;html=1;" vertex="1" parent="1">
          <mxGeometry x="360" y="737.5" width="110" height="112.5" as="geometry" />
        </mxCell>
        <mxCell id="gmLKkYJIJeNkMna4f-KU-16" value="&lt;h1 style=&quot;margin-top: 0px;&quot;&gt;phone&lt;/h1&gt;&lt;p&gt;&lt;span style=&quot;background-color: initial; font-size: 10px;&quot;&gt;# Certificate id&lt;/span&gt;&lt;br&gt;&lt;span style=&quot;font-size: 10px;&quot;&gt;number&lt;/span&gt;&lt;/p&gt;&lt;p&gt;&lt;br&gt;&lt;/p&gt;&lt;p&gt;&lt;br&gt;&lt;/p&gt;" style="text;html=1;whiteSpace=wrap;overflow=hidden;rounded=0;" vertex="1" parent="1">
          <mxGeometry x="370" y="752.5" width="90" height="87.5" as="geometry" />
        </mxCell>
        <mxCell id="gmLKkYJIJeNkMna4f-KU-17" value="" style="rounded=1;whiteSpace=wrap;html=1;" vertex="1" parent="1">
          <mxGeometry x="30" y="750" width="160" height="110" as="geometry" />
        </mxCell>
        <mxCell id="gmLKkYJIJeNkMna4f-KU-18" value="&lt;h1 style=&quot;margin-top: 0px;&quot;&gt;OPERATOR&lt;/h1&gt;&lt;p&gt;&lt;span style=&quot;background-color: initial; font-size: 10px;&quot;&gt;# Operator id&lt;/span&gt;&lt;br&gt;&lt;span style=&quot;font-size: 10px;&quot;&gt;number&lt;/span&gt;&lt;/p&gt;&lt;p&gt;&lt;br&gt;&lt;/p&gt;&lt;p&gt;&lt;br&gt;&lt;/p&gt;" style="text;html=1;whiteSpace=wrap;overflow=hidden;rounded=0;" vertex="1" parent="1">
          <mxGeometry x="40" y="765" width="140" height="95" as="geometry" />
        </mxCell>
      </root>
    </mxGraphModel>
  </diagram>
</mxfile>
